<?xml version="1.0" encoding="utf-8"?>
<!-- Generator: Adobe Illustrator 24.0.1, SVG Export Plug-In . SVG Version: 6.00 Build 0)  -->
<svg version="1.1" id="logo-dark" xmlns="http://www.w3.org/2000/svg" xmlns:xlink="http://www.w3.org/1999/xlink" x="0px" y="0px"
	 viewBox="0 0 96 25.7" style="enable-background:new 0 0 96 25.7;" xml:space="preserve">
<style type="text/css">
	.st0{display:none;}
	.st1{display:inline;stroke:#000000;stroke-width:0.75;stroke-miterlimit:10;}
	.st2{display:inline;stroke:#000000;stroke-width:0.7468;stroke-miterlimit:10;}
	.st3{display:inline;stroke:#000000;stroke-width:0.7237;stroke-miterlimit:10;}
	.st4{fill:#1D1D1B;}
	.st5{font-family:'Montserrat-Bold';}
	.st6{font-size:25px;}
</style>
<g class="st0">
	<path class="st1" d="M-29.4,4.9c0,1.1,0,2.1,0.1,2.9h-0.8c-0.5-4.9-1-6.6-5.4-6.6h-2.2c-2.4,0-2.9,0.4-2.9,2.9v8.7h2.6
		c3.1,0,3-3,3.3-4.6h0.8C-34,9.7-34,10.7-34,11.5c0,0.6,0,1.2,0,1.7c0,1.2,0,2.3,0.2,5h-0.8c-0.3-2.3-0.3-4.6-3.4-4.6h-2.6v8.1
		c0,2.6,0.6,2.9,3.6,3v0.7c-1.2-0.1-3.3-0.1-5.2-0.1c-1.8,0-3.5,0-4.5,0.1v-0.7c2.4-0.1,2.9-0.5,2.9-3V4.1c0-2.6-0.5-2.9-2.9-3V0.4
		c3.5,0.1,8.1,0.1,10.2,0.1c2.1,0,5.2,0,7.4-0.1C-29.3,2.2-29.4,4-29.4,4.9z"/>
	<path class="st2" d="M4.6,0.4v0.7C3.7,1.3,2.5,2,1.8,4.1l-6.6,21.2h-0.3c-0.1,0-0.2,0-0.3,0l-6.1-18l-5.6,18h-0.3
		c-0.1,0-0.2,0-0.3,0l-7.4-22c-0.6-1.8-1.7-2.2-2.4-2.2V0.4c0.9,0.1,2.4,0.1,3.7,0.1c1.5,0,2.9,0,3.8-0.1v0.7
		c-1.2,0.1-1.7,0.4-1.7,1.2c0,0.4,0.1,1,0.4,1.7l5.2,15.7l4.2-13.6l-0.9-2.8c-0.6-1.8-1.4-2.2-2.1-2.2V0.4c0.8,0.1,2.2,0.1,3.4,0.1
		c1.8,0,3.5,0,4.5-0.1v0.7c-1.6,0.1-2.4,0.2-2.4,1.2c0,0.4,0.1,1,0.4,1.7l5,15.6L0.3,6.1C0.8,4.9,0.9,4,0.9,3.2c0-1.6-1-2.1-3-2.2
		V0.4c1.3,0.1,2.8,0.1,4,0.1C3.2,0.5,3.9,0.5,4.6,0.4z"/>
	<path class="st1" d="M25.2,25.3c-2.4-0.1-5.7-0.1-8.1-0.1c-2.1,0-6.8,0-10.2,0.1v-0.7c2.4-0.1,2.9-0.5,2.9-3V4.1
		c0-2.6-0.5-2.9-2.9-3V0.4c3.5,0.1,8.1,0.1,10.2,0.1s5.2,0,7.4-0.1c-0.2,1.6-0.2,3.4-0.2,4.2s0,1.6,0.1,2.2h-0.8
		c-0.5-4.2-1-5.5-4.7-5.5h-3c-2.4,0-2.9,0.4-2.9,2.9v8.3h2.3c3.1,0,3-3,3.3-4.6h0.8c-0.1,1.5-0.1,2.5-0.1,3.3c0,0.7,0,1.2,0,1.7
		c0,1.2,0,2.3,0.2,5h-0.8c-0.3-2.3-0.3-4.7-3.4-4.7H13v8.5c0,2.6,0.5,2.9,2.9,2.9h2.6c4.4,0,5.3-1.6,5.8-6.2h0.8
		C25,19,25,20,25,20.9C24.9,21.7,25,23.5,25.2,25.3z"/>
	<path class="st1" d="M51.2,12.6c0,7.7-4.6,12.7-12.7,12.7c-1.1,0-3.4-0.1-4.9-0.1c-1.6,0-3.4,0-4.4,0.1v-0.7c2.4-0.1,2.9-0.5,2.9-3
		V4.1c0-2.6-0.5-2.9-2.9-3V0.4c0.8,0.1,2.1,0.1,3.4,0.1c0.3,0,0.6,0,0.9,0c1.6,0,4-0.1,5.3-0.1C47.2,0.4,51.2,4.7,51.2,12.6z
		 M35.3,4v17.6c0,2.5,0.5,3,2.6,3c7.7,0,9.7-4.3,9.7-12C47.7,4.8,45.2,1,37.9,1C35.8,1,35.3,1.6,35.3,4z"/>
	<path class="st1" d="M77.2,12.6c0,7.7-4.6,12.7-12.7,12.7c-1.1,0-3.4-0.1-4.9-0.1c-1.6,0-3.4,0-4.4,0.1v-0.7c2.4-0.1,2.9-0.5,2.9-3
		V4.1c0-2.6-0.5-2.9-2.9-3V0.4c0.8,0.1,2.1,0.1,3.4,0.1c0.3,0,0.6,0,0.9,0c1.6,0,4-0.1,5.3-0.1C73.2,0.4,77.2,4.7,77.2,12.6z
		 M61.3,4v17.6c0,2.5,0.5,3,2.6,3c7.7,0,9.7-4.3,9.7-12c0-7.9-2.5-11.7-9.8-11.7C61.8,1,61.3,1.6,61.3,4z"/>
	<path class="st1" d="M90.2,1.1c-2.4,0.1-2.9,0.5-2.9,3v17.5c0,2.6,0.5,2.9,2.9,3v0.7c-1.1-0.1-2.9-0.1-4.5-0.1
		c-1.8,0-3.5,0-4.5,0.1v-0.7c2.4-0.1,2.9-0.5,2.9-3V4.1c0-2.6-0.5-2.9-2.9-3V0.4c1,0.1,2.7,0.1,4.5,0.1c1.6,0,3.4,0,4.5-0.1V1.1z"/>
	<path class="st1" d="M116.1,1.1c-2.4,0.1-2.9,0.8-2.9,3.4v21h-0.8L97.7,2.6v18.6c0,2.6,0.5,3.3,3.2,3.4v0.7
		c-0.8-0.1-2.4-0.1-3.6-0.1c-1.2,0-2.5,0-3.3,0.1v-0.7c2.4-0.1,2.9-0.8,2.9-3.4V4.1c0-2.6-0.5-2.9-2.9-3V0.4
		c0.8,0.1,2.1,0.1,3.3,0.1c1,0,2,0,2.7-0.1l12.4,19.1v-15c0-2.6-0.4-3.3-3.2-3.4V0.4c0.8,0.1,2.4,0.1,3.6,0.1c1.2,0,2.5,0,3.3-0.1
		V1.1z"/>
	<path class="st3" d="M135.6,2.6c0.3,0.2,0.5,0.3,0.7,0.3c0.4,0,0.7-0.6,0.8-2.1h0.8c-0.1,1.7-0.1,3.9-0.1,7.8H137
		c-0.3-1.9-0.6-3.7-1.7-5C134,2,131.7,1,129.4,1c-4.5,0-7.5,4.6-7.5,11.9c0,8.2,2.6,11.8,8.1,11.8c1.6,0,2.9-0.6,3.5-1.1
		c0.8-0.6,1-1,1-1.9v-3.3c0-2.8-0.6-3.2-3.4-3.3v-0.7c1.2,0.1,3.3,0.1,4.8,0.1s2.7,0,3.5-0.1v0.7c-1.5,0.1-1.7,0.4-1.7,2.9v6.7H137
		c0-0.8-0.3-1.9-0.9-1.9c-0.3,0-0.4,0.1-1.1,0.6c-1.5,1.1-3.1,1.8-5.3,1.8c-7,0-11.1-4.5-11.1-12.1c0-7.9,4.6-12.9,10.9-12.9
		C132.4,0.4,134,1.4,135.6,2.6z"/>
</g>
<text transform="matrix(1 0 0 1 2.7874 20.1623)" class="st4 st5 st6">endgiv</text>
</svg>
